<svg width="320" height="320" viewBox="0 0 320 320" fill="none" xmlns="http://www.w3.org/2000/svg">
  <defs>
    <linearGradient id="cz-bg" x1="18" y1="10" x2="302" y2="310" gradientUnits="userSpaceOnUse">
      <stop stop-color="#08060C"/>
      <stop offset="0.56" stop-color="#22141C"/>
      <stop offset="1" stop-color="#07050A"/>
    </linearGradient>
    <radialGradient id="cz-halo" cx="0" cy="0" r="1" gradientUnits="userSpaceOnUse" gradientTransform="translate(160 96) rotate(90) scale(132)">
      <stop stop-color="#FFB347" stop-opacity="0.94"/>
      <stop offset="1" stop-color="#FFB347" stop-opacity="0"/>
    </radialGradient>
    <linearGradient id="cz-suit" x1="160" y1="196" x2="160" y2="306" gradientUnits="userSpaceOnUse">
      <stop stop-color="#21161D"/>
      <stop offset="1" stop-color="#0A070D"/>
    </linearGradient>
    <linearGradient id="cz-visor" x1="110" y1="142" x2="210" y2="142" gradientUnits="userSpaceOnUse">
      <stop stop-color="#FFB347"/>
      <stop offset="1" stop-color="#FFD45C"/>
    </linearGradient>
  </defs>
  <rect x="10" y="10" width="300" height="300" rx="40" fill="url(#cz-bg)"/>
  <rect x="10" y="10" width="300" height="300" rx="40" stroke="#FFB347" stroke-opacity="0.18" stroke-width="2"/>
  <path d="M52 54H136" stroke="#FFB347" stroke-opacity="0.18" stroke-width="3" stroke-linecap="round"/>
  <path d="M182 54H268" stroke="#FFD45C" stroke-opacity="0.18" stroke-width="3" stroke-linecap="round"/>
  <path d="M42 252H278" stroke="#FFB347" stroke-opacity="0.08" stroke-width="2"/>
  <path d="M42 272H278" stroke="#FFB347" stroke-opacity="0.08" stroke-width="2"/>
  <circle cx="160" cy="102" r="116" fill="url(#cz-halo)"/>
  <path d="M62 310L78 228L102 201C119 181 138 172 160 172C182 172 201 181 218 201L242 228L258 310H62Z" fill="url(#cz-suit)"/>
  <path d="M124 188L160 222L196 188L210 206L186 310H134L110 206L124 188Z" fill="#F3EEE8"/>
  <path d="M146 190L160 208L174 190L181 310H139L146 190Z" fill="#FFD45C" fill-opacity="0.88"/>
  <ellipse cx="160" cy="145" rx="60" ry="72" fill="#E2BEA1"/>
  M96 118C101 78 129 50 172 52C208 53 235 78 237 119C222 108 208 100 187 97C164 93 123 98 96 118Z
  <path d="M110 142H210" stroke="url(#cz-visor)" stroke-width="8" stroke-linecap="round"/>
  <path d="M124 131C133 127 142 126 151 126" stroke="#3F2C22" stroke-width="4" stroke-linecap="round"/><path d="M169 126C178 126 187 127 196 131" stroke="#3F2C22" stroke-width="4" stroke-linecap="round"/>
  <circle cx="137" cy="145" r="5" fill="#0B1120"/>
  <circle cx="183" cy="145" r="5" fill="#0B1120"/>
  <path d="M160 148V160" stroke="#B98D77" stroke-width="3" stroke-linecap="round"/>
  <path d="M139 171C148 177 172 177 181 171" stroke="#8D6756" stroke-width="4" stroke-linecap="round"/>
  <path d="M110 220C126 209 142 204 160 204C178 204 194 209 210 220" stroke="#FFB347" stroke-opacity="0.54" stroke-width="3" stroke-linecap="round"/>
  <path d="M96 250H224" stroke="#FFD45C" stroke-opacity="0.14" stroke-width="2"/>
  <path d="M110 270H210" stroke="#FFD45C" stroke-opacity="0.1" stroke-width="2"/>
  <path d="M106 238V270" stroke="#FFB347" stroke-opacity="0.22" stroke-width="4"/><path d="M160 234V278" stroke="#FFB347" stroke-opacity="0.22" stroke-width="4"/><path d="M214 238V270" stroke="#FFB347" stroke-opacity="0.22" stroke-width="4"/><path d="M227 112L256 100" stroke="#FFB347" stroke-width="4" stroke-linecap="round" stroke-opacity="0.85"/>
</svg>
