<svg width="320" height="320" viewBox="0 0 320 320" fill="none" xmlns="http://www.w3.org/2000/svg">
  <defs>
    <linearGradient id="ly_bg" x1="20" y1="14" x2="300" y2="306" gradientUnits="userSpaceOnUse">
      <stop stop-color="#EEF4E5"/>
      <stop offset="0.54" stop-color="#D8E3CD"/>
      <stop offset="1" stop-color="#C2D1BB"/>
    </linearGradient>
    <radialGradient id="ly_wash" cx="0" cy="0" r="1" gradientUnits="userSpaceOnUse" gradientTransform="translate(84 84) rotate(39) scale(146 118)">
      <stop stop-color="#E6F5DE"/>
      <stop offset="1" stop-color="#E6F5DE" stop-opacity="0"/>
    </radialGradient>
    <linearGradient id="ly_coat" x1="160" y1="182" x2="160" y2="296" gradientUnits="userSpaceOnUse">
      <stop stop-color="#6A7D64"/>
      <stop offset="1" stop-color="#556450"/>
    </linearGradient>
  </defs>
  <rect x="10" y="10" width="300" height="300" rx="40" fill="url(#ly_bg)"/>
  <rect x="10" y="10" width="300" height="300" rx="40" stroke="#B7C7AE" stroke-width="2"/>
  <circle cx="84" cy="84" r="92" fill="url(#ly_wash)"/>
  <path d="M30 246C76 214 118 200 160 200C202 200 244 214 290 246" fill="#D8E2D2" fill-opacity="0.72"/>
  <path d="M88 296L102 222C115 197 137 182 160 182C183 182 205 197 218 222L232 296H88Z" fill="url(#ly_coat)"/>
  <path d="M128 193L160 223L192 193L198 296H122L128 193Z" fill="#F5F3E8"/>
  <path d="M118 210C131 198 145 192 160 192C175 192 189 198 202 210" stroke="#95B48E" stroke-width="3" stroke-linecap="round"/>
  <rect x="146" y="162" width="28" height="26" rx="13" fill="#E6C3A7"/>
  <ellipse cx="160" cy="122" rx="47" ry="54" fill="#E6C3A7"/>
  <path d="M114 111C118 82 138 64 170 66C192 68 206 81 208 109C198 99 186 92 169 90C146 87 127 96 114 111Z" fill="#4D443D"/>
  <path d="M120 102C124 84 136 72 154 68C144 96 143 118 150 137C139 135 129 125 120 102Z" fill="#5D534B"/>
  <path d="M150 138C144 115 146 93 158 67C176 68 191 78 200 94C190 91 179 90 167 90C154 90 142 94 132 100C136 118 142 130 150 138Z" fill="#675B53"/>
  <path d="M133 118C137 115 142 113 148 113C154 113 159 115 163 118" stroke="#5F4E46" stroke-width="3.5" stroke-linecap="round"/>
  <path d="M157 118C161 115 166 113 172 113C178 113 183 115 187 118" stroke="#5F4E46" stroke-width="3.5" stroke-linecap="round"/>
  <ellipse cx="146" cy="125" rx="5.2" ry="6.8" fill="#2A2522"/>
  <ellipse cx="174" cy="125" rx="5.2" ry="6.8" fill="#2A2522"/>
  <circle cx="148" cy="123" r="1.2" fill="#FFFDF7"/>
  <circle cx="176" cy="123" r="1.2" fill="#FFFDF7"/>
  <path d="M160 129V139" stroke="#C89980" stroke-width="3" stroke-linecap="round"/>
  <path d="M147 151C154 157 166 157 173 151" stroke="#98695C" stroke-width="3.5" stroke-linecap="round"/>
  <ellipse cx="130" cy="138" rx="9" ry="6" fill="#D89C88" fill-opacity="0.24"/>
  <ellipse cx="190" cy="138" rx="9" ry="6" fill="#D89C88" fill-opacity="0.24"/>
  <path d="M79 208C88 186 96 172 106 163" stroke="#7AA171" stroke-width="8" stroke-linecap="round" opacity="0.9"/>
  <path d="M224 90C232 84 242 83 250 88" stroke="#99B78E" stroke-width="4" stroke-linecap="round"/>
  <path d="M230 102C238 102 246 106 252 113" stroke="#A9C79F" stroke-width="3" stroke-linecap="round"/>
</svg>
